<!DOCTYPE svg PUBLIC "-//W3C//DTD SVG 1.1//EN" "http://www.w3.org/Graphics/SVG/1.1/DTD/svg11.dtd">
<!-- Uploaded to: SVG Repo, www.svgrepo.com, Transformed by: SVG Repo Mixer Tools -->
<svg width="64px" height="64px" viewBox="0 0 64.00 64.00" xmlns="http://www.w3.org/2000/svg" fill="none" stroke="rgb(142, 109, 69)" transform="rotate(0)" stroke-width="1.28">
<g id="SVGRepo_bgCarrier" stroke-width="0"/>
<g id="SVGRepo_tracerCarrier" stroke-linecap="round" stroke-linejoin="round" stroke="#CCCCCC" stroke-width="1.408"/>
<g id="SVGRepo_iconCarrier">
<path d="M53.26 54.62a4.09 4.09 0 0 0 2.51-5.22l-1.36-3.87A4.1 4.1 0 0 0 49.18 43c-7.73 2.71-10.45-5-11.81-8.88S33.3 22.55 41 19.83a4.1 4.1 0 0 0 2.51-5.22l-1.36-3.87A4.1 4.1 0 0 0 37 8.23c-9.66 3.4-14.1 9.3-7.31 28.63S43.6 58 53.26 54.62z"/>
<path d="M34.81 48.18A4 4 0 0 0 32 52a4 4 0 0 1-8 0 4 4 0 0 0-8 0 4 4 0 0 1-8 0"/>
</g>
</svg>